<svg width="199" height="241" viewBox="0 0 199 241" fill="none" xmlns="http://www.w3.org/2000/svg">
<ellipse cx="98.5" cy="132" rx="66.5" ry="63" fill="#FFFEE3"/>
<ellipse cx="99.5" cy="158" rx="42.5" ry="41" fill="#FFF64F"/>
<path d="M143.169 179.192L146.742 185.786H146.742L143.169 179.192ZM34.6001 163.333L39.9083 158.035H39.9083L34.6001 163.333ZM55.8314 179.192L52.2587 185.787L52.2587 185.787L55.8314 179.192ZM41.1695 169.308L45.9416 163.522V163.522L41.1695 169.308ZM26.3324 58.0072C28.3791 54.406 27.119 49.8275 23.5178 47.7808C19.9167 45.7341 15.3382 46.9942 13.2915 50.5954L26.3324 58.0072ZM52.4411 12.3328C48.795 14.2983 47.4326 18.8474 49.3982 22.4935C51.3637 26.1396 55.9128 27.502 59.5589 25.5365L52.4411 12.3328ZM183.5 99.109C183.5 130.808 165.777 158.413 139.597 172.597L146.742 185.786C177.547 169.096 198.5 136.553 198.5 99.109H183.5ZM99.5 15.5C145.922 15.5 183.5 52.9633 183.5 99.109H198.5C198.5 44.6185 154.146 0.5 99.5 0.5V15.5ZM64.4221 188.756H134.578V173.756H64.4221V188.756ZM39.9083 158.035C24.8102 142.909 15.5 122.096 15.5 99.109H0.5C0.5 126.238 11.5082 150.815 29.2918 168.632L39.9083 158.035ZM59.4041 172.598C54.6171 170.004 50.1103 166.96 45.9416 163.522L36.3974 175.094C41.3068 179.143 46.6162 182.73 52.2587 185.787L59.4041 172.598ZM45.9416 163.522C43.8421 161.79 41.8285 159.959 39.9083 158.035L29.2918 168.632C31.5534 170.897 33.9247 173.054 36.3974 175.094L45.9416 163.522ZM15.5 99.109C15.5 84.1557 19.4372 70.1392 26.3324 58.0072L13.2915 50.5954C5.14734 64.9249 0.5 81.4871 0.5 99.109H15.5ZM59.5589 25.5365C71.4293 19.1374 85.0262 15.5 99.5 15.5V0.5C82.4828 0.5 66.4465 4.7828 52.4411 12.3328L59.5589 25.5365ZM64.4221 173.756C62.4808 173.756 60.775 173.341 59.4041 172.598L52.2587 185.787C56.1473 187.893 60.3815 188.756 64.4221 188.756V173.756ZM139.597 172.597C138.226 173.34 136.519 173.756 134.578 173.756V188.756C138.619 188.756 142.854 187.893 146.742 185.786L139.597 172.597Z" fill="#424B54"/>
<rect x="59" y="199.179" width="84" height="14.9359" rx="5" fill="#424B54"/>
<rect x="77" y="226.064" width="48" height="14.9359" rx="5" fill="#424B54"/>
<ellipse cx="33.5" cy="33.3909" rx="10.5" ry="10.4551" fill="#424B54"/>
</svg>
