<svg width="22" height="19" viewBox="0 0 22 19" fill="none" xmlns="http://www.w3.org/2000/svg">
<path d="M18.8108 9.5C18.8108 5.93224 15.7766 3.04 12.0338 3.04C9.13292 3.04 6.65775 4.77734 5.69093 7.22H7.59528L3.79764 12.92L0 7.22H2.35645C3.42775 3.07447 7.35411 0 12.0338 0C17.538 0 22 4.25329 22 9.5C22 14.7467 17.538 19 12.0338 19C9.20765 19 6.65404 17.8767 4.84226 16.0771L7.14331 13.9722C8.37862 15.1992 10.1116 15.96 12.0338 15.96C15.7766 15.96 18.8108 13.0678 18.8108 9.5Z" fill="#2D7DD2"/>
</svg>
